<?xml version="1.0" encoding="utf-8"?>
<!-- Generator: Adobe Illustrator 28.1.0, SVG Export Plug-In . SVG Version: 6.00 Build 0)  -->
<svg version="1.1" id="Layer_1" xmlns="http://www.w3.org/2000/svg" xmlns:xlink="http://www.w3.org/1999/xlink" x="0px" y="0px"
	 viewBox="0 0 2000 422" style="enable-background:new 0 0 2000 422;" xml:space="preserve">
<style type="text/css">
	.st0{fill:#3F678D;}
	.st1{fill:#42709B;}
	.st2{fill-rule:evenodd;clip-rule:evenodd;fill:#DCE1EB;}
	.st3{fill:#FFFFFF;}
	.st4{fill:#D4DAE5;}
	.st5{fill:#4F789C;}
	.st6{fill:#75A8D9;}
	.st7{fill:#437097;}
	.st8{opacity:0.6;fill:#FFFFFF;}
	.st9{fill:#D8DDE7;}
</style>
<g>
	<g>
		<path class="st5" d="M1956.7,77.6h6.5V62.9h4.8l8.9,14.6h6.8l-9.3-15.2c2.4-0.3,4.4-1.2,6.1-2.7c1.6-1.6,2.4-3.9,2.4-7.1
			c0-3.5-1.1-6.1-3.1-8c-2-1.9-5.3-2.7-9.6-2.7h-13.8V77.6z M1963.4,47.4h4.8c1.1,0,2,0,3.1,0.1c1.1,0.1,1.9,0.2,2.7,0.6
			c0.8,0.3,1.5,0.8,2,1.5c0.5,0.6,0.7,1.6,0.7,2.7c0,1.2-0.2,2.1-0.7,2.7c-0.5,0.6-1.2,1.2-2,1.5c-0.8,0.3-1.7,0.5-2.7,0.6
			c-1.1,0.1-2,0.1-3.1,0.1h-4.8V47.4z M1940,72.1c1.7,3.8,3.9,7.1,6.7,9.9c2.8,2.8,6.1,5.1,9.9,6.7c3.8,1.7,7.8,2.5,12.1,2.5
			c4.3,0,8.3-0.8,12.1-2.5c3.8-1.7,7.1-3.9,9.9-6.7c2.8-2.8,5.1-6.1,6.7-9.9c1.7-3.8,2.5-7.8,2.5-12.1s-0.8-8.3-2.5-12.1
			c-1.7-3.8-3.9-7.1-6.7-9.9c-2.8-2.8-6.1-5.1-9.9-6.7s-7.8-2.5-12.1-2.5c-4.3,0-8.3,0.8-12.1,2.5c-3.8,1.7-7.1,3.9-9.9,6.7
			c-2.8,2.8-5.1,6.1-6.7,9.9c-1.7,3.8-2.5,7.8-2.5,12.1C1937.6,64.2,1938.3,68.3,1940,72.1z M1945.1,49.9c1.4-3.2,3.2-5.9,5.5-8.2
			c2.3-2.3,5.1-4.2,8.2-5.5c3.2-1.4,6.4-2,10-2s6.8,0.6,10,2c3.2,1.4,5.9,3.2,8.2,5.5c2.3,2.3,4.2,5.1,5.5,8.2c1.4,3.2,2,6.4,2,10
			c0,3.6-0.6,6.8-2,10c-1.4,3.2-3.2,5.9-5.5,8.2c-2.3,2.3-5.1,4.2-8.2,5.5c-3.2,1.4-6.4,2-10,2s-6.8-0.6-10-2
			c-3.2-1.4-5.9-3.2-8.2-5.5c-2.3-2.3-4.2-5.1-5.5-8.2c-1.4-3.2-2-6.4-2-10C1943.1,56.3,1943.8,53.1,1945.1,49.9z"/>
	</g>
	<g>
		<path class="st5" d="M707.9,83.6v44.1c-19.4-33.9-53.8-55.9-98.9-55.9c-71.6,0-121.6,54.3-121.6,128c0,74.2,50,127.5,121.6,127.5
			c45.2,0,79.6-21.5,98.9-55.4v142c0,4.8,3.3,8.1,8.1,8.1h13.5c4.8,0,8.1-3.3,8.1-8.1V83.6c0-4.8-3.3-8.1-8.1-8.1H716
			C711.1,75.5,707.9,78.7,707.9,83.6z M612.1,298.7c-57.6,0-96.3-40.8-96.3-98.9s38.7-100,96.3-100c58.1,0,95.7,42,95.7,100
			C707.8,257.8,670.2,298.7,612.1,298.7z"/>
	</g>
	<g>
		<path class="st5" d="M989.8,83.6v141.5c0,48.9-33.4,76.3-76.3,76.3c-42.5,0-76.3-27.5-76.3-76.3V83.6c0-4.8-3.3-8.1-8.1-8.1h-13.5
			c-4.8,0-8.1,3.3-8.1,8.1v145.2c0,67.8,48.4,98.4,99.5,98.4c32.8,0,64.5-12.9,82.8-40.8v28.5c0,4.8,3.3,8.1,8.1,8.1h13.5
			c4.8,0,8.1-3.3,8.1-8.1V83.5c0-4.8-3.3-8.1-8.1-8.1h-13.5C993.1,75.5,989.8,78.7,989.8,83.6z"/>
	</g>
	<g>
		<path class="st5" d="M1303.4,83.6v43.6c-19.4-33.9-53.8-55.4-98.9-55.4c-71.6,0-121.6,53.3-121.6,127.5c0,73.7,50,128,121.6,128
			c45.2,0,79.6-22,98.9-55.9v43.6c0,4.8,3.3,8.1,8.1,8.1h13.5c4.8,0,8.1-3.3,8.1-8.1V83.6c0-4.8-3.3-8.1-8.1-8.1h-13.5
			C1306.6,75.5,1303.4,78.7,1303.4,83.6z M1207.6,298.7c-57.6,0-96.3-41.4-96.3-99.5s38.7-99.5,96.3-99.5
			c58.1,0,95.7,41.4,95.7,99.5S1265.8,298.7,1207.6,298.7z"/>
	</g>
	<g>
		<path class="st5" d="M1432.4,121.2V83.5c0-4.8-3.3-8.1-8.1-8.1h-13.5c-4.8,0-8.1,3.3-8.1,8.1v231.4c0,4.8,3.3,8.1,8.1,8.1h13.5
			c4.8,0,8.1-3.3,8.1-8.1V182.9c0-53.8,38.7-79.1,79.6-82.8c4.8-0.5,7.6-3.8,7.6-8.6V79.7c0-5.4-2.7-8.1-8.1-7.6
			C1478.7,74.9,1449.2,91.1,1432.4,121.2z"/>
	</g>
	<g>
		<path class="st5" d="M1684.2,91.1v-7.6c0-4.8-3.3-8.1-8.1-8.1h-53.8V8.1c0-4.8-3.3-8.1-8.1-8.1h-13.6c-4.8,0-8.1,3.3-8.1,8.1v67.3
			h-27.5c-4.8,0-8.1,3.3-8.1,8.1v7.6c0,4.8,3.3,8.1,8.1,8.1h27.5V268c0,34.9,21.5,54.8,55.4,54.8h25.3c4.8,0,8.1-3.3,8.1-8.1v-8.6
			c0-4.8-3.3-8.1-8.1-8.1h-16.1c-18.8,0-34.9-8.6-34.9-33.9V98.9h53.8C1681.1,99.2,1684.2,95.9,1684.2,91.1z"/>
	</g>
	<g>
		<path class="st5" d="M1844.5,327.8c74.2,0,124.7-54.8,124.7-128.5c0-74.2-50.5-128-124.7-128s-125.3,53.8-125.3,128
			C1719.3,272.9,1770.3,327.8,1844.5,327.8z M1844.5,298.7c-57.1,0-95.7-42.5-95.7-99.5c0-57.1,38.7-99.5,95.7-99.5
			c57.1,0,94.6,42.5,94.6,99.5C1939.2,256.3,1901.6,298.7,1844.5,298.7z"/>
	</g>
	<g>
		<g>
			<path class="st6" d="M176.6,5.1C81.7,10.8,5.7,86.7,0,181.7h176.6V5.1z"/>
		</g>
		<g>
			<path class="st6" d="M0,204.6c5.7,94.9,81.7,170.9,176.6,176.6V204.6H0z"/>
		</g>
		<g>
			<path class="st6" d="M199.5,381.2c94.9-5.7,170.9-81.7,176.6-176.6H199.5V381.2z"/>
		</g>
		<g>
			<path class="st6" d="M376.1,181.7C370.4,86.7,294.4,10.8,199.5,5.1v176.6H376.1z"/>
		</g>
	</g>
</g>
</svg>
